<?xml version="1.0" encoding="UTF-8"?>
<svg id="Layer_2" data-name="Layer 2" xmlns="http://www.w3.org/2000/svg" viewBox="0 0 1954 1954">
  <defs>
    <style>
      .cls-1 {
        font-family: KohinoorBangla-Bold, 'Kohinoor Bangla';
        font-size: 182.13px;
        font-weight: 700;
      }

      .cls-1, .cls-2 {
        fill: #fff;
      }

      .cls-3 {
        fill: #5dc274;
      }

      .cls-3, .cls-4, .cls-5, .cls-6, .cls-2, .cls-7, .cls-8, .cls-9, .cls-10, .cls-11, .cls-12 {
        stroke-width: 0px;
      }

      .cls-4, .cls-11 {
        fill: #ce1126;
      }

      .cls-5 {
        fill: #d85b63;
      }

      .cls-6 {
        fill: #7ed750;
      }

      .cls-7 {
        fill: #ec7a17;
      }

      .cls-8 {
        fill: #0038a7;
      }

      .cls-9 {
        fill: #0038a8;
      }

      .cls-10 {
        fill: #008102;
      }

      .cls-11, .cls-12 {
        isolation: isolate;
        opacity: .99;
      }

      .cls-12 {
        fill: #fcd116;
      }
    </style>
  </defs>
  <circle class="cls-6" cx="977" cy="977" r="977"/>
  <circle class="cls-10" cx="978.5" cy="978.5" r="943.5"/>
  <circle class="cls-2" cx="977" cy="977" r="694"/>
  <path id="path7157" class="cls-12" d="m968.36,481.59c-45.69-.15-91.87,6.2-137.13,19.51,4.09,3.11,8.79,6.72,13.98,10.72,1.76,1.35,3.02,2.34,4.89,3.79,6.84,5.29,14.36,11.16,22.43,17.53.64.51,1.16.89,1.81,1.4,2.39,1.89,4.58,3.63,7.05,5.59,4.68,3.73,9.48,7.57,14.39,11.53,2.07,1.67,4.07,3.3,6.17,5.01,4.5,3.66,9.14,7.5,13.75,11.3.27.22.55.42.82.64.1.08.19.15.29.23,4.84,4,9.62,8,14.5,12.12,1.3,1.1,2.6,2.16,3.9,3.26,3.66,3.1,7.31,6.18,10.95,9.32,3.75,3.22,7.42,6.48,11.13,9.73,1.18,1.03,2.38,2.05,3.55,3.09,2.44,2.15,4.88,4.31,7.28,6.47.9.81,1.78,1.64,2.68,2.45,2.66,2.39,5.27,4.78,7.86,7.17,3.46,3.17,6.92,6.35,10.25,9.5,5.58,5.26,11.31,11,17.13,17.13,3.88,4.08,7.79,8.34,11.71,12.7,21.56,23.98,43.49,51.58,61.86,75.84,6.68,8.82,12.9,17.2,18.47,24.82,5.57,7.61,10.48,14.42,14.56,20.16,0,.01,0,.05,0,.06,8.14,11.45,12.99,18.52,12.99,18.52,0,0,24.35-24.04,53.88-54.82,5.6-5.83,11.4-11.92,17.24-18.12,1.86-1.98,3.72-3.94,5.59-5.94,0-.01,0-.05,0-.06,1.85-1.98,3.68-4,5.53-6,4.03-4.34,8.04-8.64,12-12.99,1.81-1.98,3.64-3.97,5.42-5.94,0-.01,0-.05,0-.06,3.73-4.14,7.45-8.24,11.01-12.29,0-.01,0-.05,0-.06,3.08-3.51,6.07-6.92,8.97-10.31.46-.54.95-1.1,1.4-1.63,4.96-5.83,9.61-11.5,13.81-16.78,1.4-1.77,2.78-3.5,4.08-5.18,1.32-1.72,2.6-3.47,3.84-5.24.33-.47.67-.93.99-1.4.89-1.31,1.77-2.63,2.62-3.96.62-.96,1.21-1.94,1.81-2.91.53-.87,1.06-1.75,1.57-2.62.18-.31.35-.62.52-.93.89-1.55,1.78-3.14,2.62-4.72.44-.82.86-1.67,1.28-2.5,1.54-3.02,3-6.1,4.37-9.2.81-1.85,1.58-3.72,2.33-5.59.06-.14.12-.27.17-.41.03-.08.08-.15.12-.23.73-1.84,1.42-3.67,2.1-5.53.04-.1.08-.19.12-.29-86.8-79.3-202.06-123.45-320.68-123.84h0Zm-203.18,44.33c-6.06,2.8-12,5.78-17.88,8.8,3.59,4.06,7.08,8.07,10.49,12.06,3.39,3.96,6.66,7.89,9.79,11.71.3.36.64.74.93,1.11,1.24,1.53,2.48,3.05,3.67,4.54.21.27.43.55.64.82,1.26,1.58,2.48,3.18,3.67,4.72,2.78,3.6,5.39,7.11,7.75,10.43,1.75,2.46,3.44,4.86,5.07,7.28,0,.01,0,.05,0,.06,3.26,4.84,6.33,9.62,9.15,14.33,1.41,2.36,2.77,4.66,4.08,6.99,0,.02,0,.04,0,.06,2.6,4.64,4.98,9.22,7.16,13.75,0,.02,0,.04,0,.06,3.28,6.8,6.15,13.52,8.56,20.1.8,2.2,1.56,4.35,2.27,6.52,1.43,4.35,2.66,8.66,3.73,12.93,2.68,10.68,4.27,21.15,4.95,31.46.27,4.12.42,8.21.41,12.29,0,2.04-.04,4.08-.12,6.12-.37,10.16-1.57,20.17-3.44,30.23-1.5,8.05-3.43,16.09-5.71,24.17-1.14,4.04-2.36,8.11-3.67,12.17-.65,2.03-1.35,4.07-2.04,6.12-2.28,6.74-4.68,13.21-7.22,19.4-3.82,9.28-7.92,17.97-12.23,26.16-2.88,5.46-5.86,10.68-8.91,15.73-1.53,2.52-3.09,5.02-4.66,7.46-4.7,7.3-9.54,14.18-14.5,20.8-18.19,24.26-37.73,44.59-55.75,66,0,.01,0,.05,0,.06-4.9,5.83-9.72,11.74-14.33,17.83-3.08,4.07-6.12,8.21-9.03,12.47-7.27,10.64-13.93,21.99-19.75,34.49-.99,2.07-1.96,4.15-2.91,6.23-1.9,4.17-3.68,8.32-5.24,12.41-.78,2.05-1.51,4.06-2.16,6.06,0,.02,0,.04,0,.06-.32.98-.65,1.95-.93,2.91,0,.02,0,.04,0,.06-.57,1.97-1.06,3.87-1.46,5.77-.2.95-.38,1.87-.52,2.8,0,.02,0,.04,0,.06-.14.91-.26,1.8-.35,2.68,0,.02,0,.04,0,.06-.19,1.78-.28,3.51-.23,5.18,0,.02,0,.04,0,.06.03.82.09,1.65.17,2.45.27,2.41.84,4.72,1.75,6.82,0,.02.05.04.06.06.93,2.11,2.16,4.04,3.84,5.77.56.58,1.15,1.1,1.81,1.63.01,0,.05,0,.06,0,1.96,1.57,4.32,2.97,7.16,4.08.02,0,.04,0,.06,0,1.89.73,3.97,1.36,6.29,1.86.02,0,.04,0,.06,0,.17.04.36.08.52.12,2.19.45,4.57.81,7.16,1.05,2.81.26,5.89.36,9.2.35,2.12.42,4.23.77,6.41,1.05.14.02.27.04.41.06.02,0,.04,0,.06,0,3.47.43,7.05.7,10.66.82,1.21.04,2.45.05,3.67.06,2.43.01,4.91-.01,7.4-.12,5.01-.21,10.11-.69,15.32-1.28,36.47-4.16,77.47-16.37,117.38-17.18,2.85-.06,5.73-.06,8.56,0,4.26.1,8.48.34,12.7.76,2.81.28,5.6.67,8.39,1.11,1.39.22,2.75.44,4.14.7.02,0,.04,0,.06,0,2.75.52,5.55,1.11,8.27,1.81,2.74.7,5.45,1.49,8.16,2.39,4.07,1.34,8.08,2.9,12.06,4.72,1.33.61,2.65,1.26,3.96,1.92,2.63,1.32,5.28,2.75,7.86,4.31,2.58,1.56,5.1,3.26,7.63,5.07.01,0,.05,0,.06,0,5.06,3.62,10.02,7.77,14.85,12.47.81.9,1.57,1.8,2.33,2.74,3.8,4.71,6.95,9.89,9.55,15.44,1.04,2.21,2,4.5,2.85,6.82,2.15,5.8,3.73,11.9,4.83,18.17.44,2.51.82,5.07,1.11,7.63.29,2.56.5,5.1.64,7.69.28,5.18.27,10.41,0,15.61,0,.02,0,.04,0,.06-.07,1.28-.14,2.57-.23,3.84,0,.02,0,.04,0,.06-.1,1.28-.22,2.57-.35,3.84-.39,3.88-.92,7.74-1.57,11.53-.44,2.53-.91,4.99-1.46,7.46,0,.02,0,.04,0,.06-1.09,4.92-2.42,9.75-3.9,14.33-.74,2.27-1.55,4.58-2.39,6.87-.85,2.32-1.73,4.65-2.68,6.99-.85,2.09-1.75,4.18-2.68,6.29-.11.26-.24.5-.35.76-1.04,2.34-2.13,4.69-3.26,7.05-1.14,2.37-2.32,4.72-3.55,7.11-.08.16-.15.31-.23.47-.5.96-1,1.95-1.51,2.91-.4.76-.81,1.51-1.22,2.27-.78,1.44-1.58,2.87-2.39,4.31-.16.29-.3.58-.47.87-.67,1.19-1.34,2.36-2.04,3.55-1.34,2.3-2.73,4.62-4.14,6.93-.06.1-.12.19-.17.29-1.01,1.65-2.04,3.3-3.09,4.95-.02.04-.04.08-.06.12-2,3.16-4.06,6.33-6.17,9.5-.7,1.05-1.44,2.1-2.16,3.15-.94,1.38-1.89,2.75-2.85,4.14-.96,1.38-1.93,2.75-2.91,4.14-5,7.03-10.24,14.07-15.73,21.09-2.38,3.05-4.82,6.1-7.28,9.15-.38.46-.73.93-1.11,1.4-2.16,2.66-4.36,5.27-6.58,7.92-.72.86-1.43,1.71-2.16,2.56-2.95,3.49-5.94,6.96-8.97,10.43-2.51,2.88-5.07,5.76-7.63,8.62-.51.57-1,1.12-1.51,1.69-.19.22-.39.43-.58.64-2.92,3.24-5.88,6.46-8.85,9.67-.68.73-1.36,1.48-2.04,2.21-2.49,2.66-5,5.28-7.51,7.92,33.16,8.29,67.3,13.1,101.82,14.21.02,0,.04,0,.06,0,1.53-2.48,3.06-4.99,4.6-7.57.02-.04.04-.08.06-.12,1.51-2.53,3.04-5.11,4.54-7.75,1.13-1.97,2.25-4.03,3.38-6.06,1.32-2.37,2.59-4.77,3.9-7.22,1.31-2.45,2.6-4.93,3.9-7.46,1.3-2.53,2.62-5.08,3.9-7.69,1.01-2.05,2.03-4.13,3.03-6.23.26-.55.55-1.13.82-1.69,1.21-2.57,2.42-5.17,3.61-7.81.05-.12.12-.23.17-.35.34-.76.65-1.57.99-2.33,2.08-4.67,4.16-9.45,6.17-14.33.06-.14.12-.27.17-.41.32-.79.67-1.59.99-2.39.86-2.13,1.72-4.3,2.56-6.47.5-1.29,1.02-2.6,1.51-3.9.65-1.7,1.28-3.46,1.92-5.18.68-1.83,1.38-3.68,2.04-5.53.45-1.25.9-2.53,1.34-3.79.83-2.38,1.64-4.8,2.45-7.22.26-.77.5-1.56.76-2.33.97-2.96,1.98-5.95,2.91-8.97.08-.27.15-.55.23-.82.24-.77.46-1.55.7-2.33.77-2.53,1.53-5.06,2.27-7.63.08-.29.15-.59.23-.87,1.12-3.93,2.21-7.91,3.26-11.94.88-3.36,1.74-6.76,2.56-10.19.16-.68.36-1.35.52-2.04.22-.92.43-1.87.64-2.8.64-2.75,1.26-5.53,1.86-8.33.1-.48.19-.97.29-1.46.33-1.55.67-3.15.99-4.72.2-.98.39-1.98.58-2.97.54-2.71,1.07-5.4,1.57-8.16.69-3.76,1.36-7.59,1.98-11.42.66-4.04,1.28-8.11,1.86-12.23.23-1.61.43-3.27.64-4.89.39-2.96.76-5.91,1.11-8.91.44-3.76.85-7.59,1.22-11.42.2-2.06.4-4.15.58-6.23.31-3.59.57-7.18.82-10.83.33-4.85.6-9.79.82-14.74.21-4.95.37-9.92.47-14.97.03-1.54.04-3.11.06-4.66.04-3.41.08-6.85.06-10.31,0-.12,0-.23,0-.35-.02-2.58-.07-5.2-.12-7.81-.05-2.6-.1-5.18-.17-7.81-.11-3.66-.23-7.36-.41-11.07-.02-.44-.04-.9-.06-1.34-.19-3.84-.44-7.7-.7-11.59-.02-.31-.04-.62-.06-.93-.03-.39-.09-.78-.12-1.17-.29-4.16-.56-8.36-.93-12.58-.01-.12-.05-.23-.06-.35-.04-.44-.08-.9-.12-1.34-.28-3.02-.61-6.09-.93-9.15-.26-2.51-.52-5.04-.82-7.57-.6-5.19-1.25-10.4-1.98-15.67-.46-3.28-.95-6.59-1.46-9.9-.55-3.58-1.1-7.15-1.69-10.72-.59-3.56-1.23-7.11-1.86-10.66s-1.3-7.12-1.98-10.66c-.68-3.54-1.38-7.02-2.1-10.54s-1.46-7.04-2.21-10.54c-1.52-7.01-3.11-13.98-4.78-20.91-.05-.19-.07-.39-.12-.58-.79-3.28-1.57-6.53-2.39-9.79-.87-3.45-1.78-6.88-2.68-10.31-.37-1.4-.73-2.8-1.11-4.19-.54-2.03-1.08-4.04-1.63-6.06-.54-1.98-1.08-3.97-1.63-5.94-.4-1.42-.82-2.84-1.22-4.25-.73-2.57-1.47-5.13-2.21-7.69-.24-.82-.46-1.63-.7-2.45-.93-3.15-1.9-6.25-2.85-9.38-.07-.21-.11-.43-.17-.64-1.02-3.34-2.1-6.71-3.15-10.02-.6-1.91-1.19-3.81-1.81-5.71-.45-1.4-.88-2.8-1.34-4.19-.3-.92-.63-1.82-.93-2.74-.78-2.35-1.54-4.71-2.33-7.05-.51-1.5-1-2.99-1.51-4.49-1.41-4.14-2.86-8.26-4.31-12.35-1.22-3.46-2.48-6.88-3.73-10.31-.57-1.57-1.11-3.15-1.69-4.72-.79-2.15-1.59-4.33-2.39-6.47-.02-.04-.04-.08-.06-.12-1.94-5.19-3.95-10.28-5.94-15.38-.42-1.08-.8-2.19-1.22-3.26-.42-1.06-.86-2.09-1.28-3.15-1.43-3.61-2.86-7.21-4.31-10.78s-2.9-7.09-4.37-10.6c-4.12-9.88-8.25-19.54-12.47-29.01-.29-.65-.58-1.27-.87-1.92-2.92-6.54-5.85-13-8.8-19.34-.08-.17-.15-.35-.23-.52-1.83-3.93-3.64-7.75-5.48-11.59-1.22-2.56-2.39-5.05-3.61-7.57-.51-1.05-1.01-2.04-1.51-3.09-2.52-5.19-5.06-10.31-7.57-15.32-3.02-6.02-6.04-11.94-9.03-17.71-2.99-5.77-5.92-11.39-8.85-16.89-2.5-4.68-4.95-9.22-7.4-13.69-.45-.82-.89-1.58-1.34-2.39-5.74-10.44-11.3-20.3-16.66-29.53-2.57-4.43-5.06-8.73-7.51-12.87-.11-.18-.24-.35-.35-.52-.62-1.05-1.19-2-1.81-3.03-1.93-3.23-3.8-6.34-5.65-9.38-.21-.35-.43-.64-.64-.99-2.21-3.62-4.34-7.1-6.41-10.43-.08-.12-.16-.23-.23-.35-23.91-12.11-38.07-30.13-38.07-30.13,0,0-31.01,11.69-43.77,17.43h0Zm355.16,8.5c29.56.1,57.88,16.74,71.48,45.2,18.91,39.6,2.14,87.05-37.46,105.96-39.58,18.9-86.97,2.17-105.9-37.4l-.06-.06c-18.91-39.6-2.14-87.05,37.46-105.96,11.14-5.32,22.92-7.79,34.49-7.75h0Zm-408,20.04c-152.1,95.02-231.64,265.46-210.52,434.56.16-.39.31-.78.47-1.17.95-2.31,1.97-4.64,2.97-6.93.6-1.36,1.19-2.72,1.81-4.08.3-.67.63-1.31.93-1.98.53-1.14,1.03-2.3,1.57-3.44.86-1.81,1.73-3.61,2.62-5.42.61-1.24,1.24-2.49,1.86-3.73.6-1.18,1.2-2.37,1.81-3.55,1.53-2.95,3.11-5.92,4.72-8.85.16-.29.31-.59.47-.87,1.6-2.89,3.22-5.75,4.89-8.62.53-.92,1.09-1.82,1.63-2.74,1.69-2.87,3.42-5.72,5.18-8.56.12-.19.23-.39.35-.58,2.11-3.4,4.27-6.77,6.47-10.14,1.73-2.66,3.46-5.34,5.24-7.98.37-.54.74-1.09,1.11-1.63.66-.97,1.37-1.89,2.04-2.85,1.87-2.71,3.74-5.41,5.65-8.1,2.14-3.01,4.33-5.99,6.52-8.97.24-.33.46-.66.7-.99.04-.06.08-.12.12-.17.34-.47.7-.93,1.05-1.4,2.16-2.9,4.32-5.8,6.52-8.68,1.16-1.52,2.33-3.03,3.5-4.54,1.27-1.63,2.57-3.27,3.84-4.89.21-.27.43-.54.64-.82,1.09-1.39,2.22-2.75,3.32-4.14,2.92-3.67,5.82-7.32,8.8-10.95.42-.51.86-1,1.28-1.51,3.81-4.63,7.66-9.29,11.53-13.86.81-.96,1.63-1.9,2.45-2.85,2.28-2.68,4.58-5.32,6.87-7.98,4.72-5.48,9.46-10.97,14.21-16.37.27-.31.54-.62.82-.93.98-1.11,1.93-2.21,2.91-3.32,6.68-7.57,13.36-15.06,19.98-22.49,3.12-3.5,6.17-6.9,9.26-10.37,5.42-6.08,10.75-12.07,16.02-18.06,1.84-2.09,3.64-4.24,5.36-6.35,1.6-1.96,3.11-3.91,4.6-5.88.12-.16.23-.31.35-.47,1.43-1.9,2.85-3.79,4.19-5.71.16-.23.31-.47.47-.7,1.49-2.15,2.88-4.3,4.25-6.47s2.7-4.35,3.96-6.52c1-1.72,1.98-3.4,2.91-5.13.09-.18.2-.35.29-.52,1.04-1.94,2.02-3.94,2.97-5.88.62-1.27,1.22-2.52,1.81-3.79.68-1.47,1.34-2.95,1.98-4.43.86-1.99,1.67-4,2.45-6,.09-.22.21-.42.29-.64.56-1.46,1.11-2.9,1.63-4.37.08-.22.16-.42.23-.64.61-1.71,1.14-3.41,1.69-5.13.07-.22.16-.43.23-.64.04-.12.08-.23.12-.35.52-1.66.98-3.34,1.46-5.01.11-.37.25-.73.35-1.11.26-.93.51-1.86.76-2.8.13-.5.22-1.01.35-1.51.3-1.18.6-2.37.87-3.55.36-1.56.73-3.1,1.05-4.66.03-.14.03-.27.06-.41.22-1.07.44-2.13.64-3.2.09-.48.15-.97.23-1.46.23-1.28.44-2.57.64-3.84.07-.47.16-.93.23-1.4.15-1.01.27-2.02.41-3.03.16-1.23.32-2.44.47-3.67.11-.92.2-1.82.29-2.74,0-.06,0-.12,0-.17.19-1.89.39-3.82.52-5.71.02-.19.04-.39.06-.58.09-1.36.17-2.72.23-4.08,0-.17,0-.35,0-.52.06-1.3.14-2.61.17-3.9.04-1.42.04-2.83.06-4.25.02-1.52.02-3.03,0-4.54-.01-1.17-.03-2.33-.06-3.5-.1-3.65-.26-7.29-.52-10.89-.12-1.69-.25-3.38-.41-5.07-.04-.39-.08-.78-.12-1.17-.17-1.76-.37-3.5-.58-5.24-.04-.31-.08-.62-.12-.93-.22-1.82-.5-3.62-.76-5.42-.03-.23-.08-.46-.12-.7-.09-.61-.2-1.2-.29-1.81-.22-1.42-.4-2.85-.64-4.25-.33-1.93-.68-3.85-1.05-5.77-.02-.08-.04-.15-.06-.23-.39-1.99-.8-3.98-1.22-5.94-1.2-5.52-2.56-10.94-4.02-16.25-.1-.37-.19-.74-.29-1.11h0Zm667.04,165.09c-1.17,2.55-2.4,5.09-3.67,7.63-1.08,2.17-2.17,4.36-3.32,6.52-.2.37-.38.74-.58,1.11-.17.31-.35.62-.52.93-1.2,2.22-2.46,4.42-3.73,6.64-1.44,2.53-2.91,5.06-4.43,7.57-1.51,2.51-3.08,5.02-4.66,7.51-1.56,2.46-3.1,4.95-4.72,7.4-1.68,2.54-3.45,5.05-5.18,7.57-.18.27-.34.55-.52.82-1.53,2.21-3.09,4.39-4.66,6.58-1.75,2.45-3.51,4.91-5.3,7.34-3.59,4.88-7.24,9.68-10.95,14.45-9.26,11.9-18.8,23.46-28.14,34.49-3.75,4.43-7.41,8.74-11.07,12.99-.76.88-1.52,1.81-2.27,2.68-2.84,3.3-5.7,6.61-8.45,9.79-5.02,5.81-10.18,11.83-14.74,17.18-3.4,3.99-6.61,7.83-9.67,11.53-.43.52-.86,1.06-1.28,1.57-1.24,1.51-2.56,3.02-3.73,4.49-.15.19-.26.4-.41.58-1.25,1.57-2.51,3.09-3.67,4.6-.3.39-.58.78-.87,1.17-.82,1.07-1.62,2.11-2.39,3.15-.49.66-.98,1.33-1.46,1.98-.25.35-.51.71-.76,1.05-.77,1.07-1.51,2.17-2.21,3.2-1.09,1.58-2.1,3.12-3.03,4.6s-1.8,2.88-2.56,4.25c-6.97,12.55-15.32,26.62-18.76,39.73-.57,2.19-1.01,4.34-1.28,6.47-.09.71-.18,1.4-.23,2.1-.11,1.4-.12,2.78-.06,4.14.03.68.1,1.31.17,1.98.37,3.36,1.26,6.54,2.91,9.55.66,1.2,1.44,2.36,2.33,3.5.44.6.86,1.19,1.34,1.75.47.56,1,1.06,1.51,1.57s1.02,1.04,1.57,1.51c.11.1.23.19.35.29.76.64,1.57,1.24,2.39,1.81.65.45,1.29.88,1.98,1.28.25.15.5.26.76.41.44.24.89.53,1.34.76.4.2.81.39,1.22.58.42.2.85.4,1.28.58.82.35,1.7.68,2.56.99.08.03.16.03.23.06,1.14.4,2.34.78,3.55,1.11,1.13.31,2.25.57,3.44.82.57.12,1.16.24,1.75.35.63.12,1.27.25,1.92.35.44.07.89.11,1.34.17.21.03.43.09.64.12,1.71.23,3.49.38,5.3.52,1.51.12,3.08.23,4.66.29.43.02.84.04,1.28.06.23,0,.46,0,.7,0,1.81.05,3.65.07,5.53.06,2.11-.02,4.27-.09,6.47-.17.86-.03,1.75-.07,2.62-.12.4-.02.82-.04,1.22-.06,1.31-.07,2.62-.2,3.96-.29,2.59-.18,5.3-.39,7.98-.64.92-.08,1.86-.14,2.8-.23.78-.08,1.6-.15,2.39-.23,1.18-.12,2.42-.28,3.61-.41,3.29-.36,6.57-.75,9.96-1.17.45-.05.89-.12,1.34-.17,1.77-.22,3.68-.47,5.48-.7,3.92-.5,7.88-1,11.88-1.51,4.05-.52,8-1.01,12.12-1.51.67-.08,1.36-.15,2.04-.23,8.06-.98,16.19-1.89,24.35-2.62,5.44-.49,10.9-.88,16.31-1.17,2.7-.14,5.41-.27,8.1-.35,2.7-.08,8.57,1,11.24.99,2.69,0-10.33,11.11-7.67,11.19,9.22.27,29.77-2.28,38.43-.74,1.24.22,4.05-5.06,4.6-8.12,15.27-85.12-.66-173.32-41.53-256.08-3.34-6.77-6.85-13.39-10.49-19.92h0Zm-193.22,404.91s-3,8.15-8.27,21.44c0,.02,0,.04,0,.06-1.31,3.31-2.78,6.94-4.37,10.83-4.77,11.73-10.75,25.9-17.59,41.18-5.7,12.74-12,26.24-18.76,39.79-4.04,8.11-8.26,16.27-12.58,24.23,0,.02,0,.04,0,.06-1.44,2.65-2.91,5.26-4.37,7.86,0,.02,0,.04,0,.06-2.94,5.24-5.95,10.37-8.97,15.38-3.02,5.01-6.06,9.83-9.15,14.5,0,.01,0,.04,0,.06-1.53,2.32-3.11,4.59-4.66,6.82-3.11,4.47-6.24,8.76-9.38,12.76-2.19,2.79-4.47,5.56-6.76,8.33,0,.01,0,.05,0,.06-2.28,2.76-4.63,5.48-6.99,8.21-.03.03-.03.08-.06.12-2.35,2.72-4.74,5.41-7.17,8.1-.04.04-.08.08-.12.12-3.87,4.3-7.86,8.54-11.88,12.76-1.04,1.09-2.04,2.18-3.09,3.26-.07.07-.11.16-.17.23-2.51,2.59-5.08,5.14-7.63,7.69-.08.08-.16.16-.23.23-2.54,2.54-5.06,5.08-7.63,7.57-.09.09-.2.15-.29.23-2.66,2.58-5.3,5.16-7.98,7.69,47.68-6.06,95.22-19.36,140.97-40.49,59.97-27.7,111.06-66.14,151.98-111.79.22-1.36.41-2.73.58-4.08.17-1.31.34-2.61.47-3.9,0-.04,0-.08,0-.12.1-1.08.17-2.14.23-3.2.02-.26.05-.5.06-.76.07-1.31.11-2.61.12-3.9.04-5.78-.09-11.41-.58-16.89-.33-3.65-.82-7.27-1.57-10.78-.38-1.76-.83-3.47-1.34-5.18-.51-1.7-1.09-3.41-1.75-5.07,0-.02,0-.04,0-.06-.32-.82-.68-1.63-1.05-2.45,0-.02,0-.04,0-.06-1.12-2.49-2.43-4.88-3.96-7.28-1.02-1.6-2.15-3.22-3.38-4.78-.61-.77-1.26-1.52-1.92-2.27,0-.01,0-.05,0-.06-1.34-1.54-2.79-2.99-4.37-4.49-1.22-1.16-2.53-2.3-3.9-3.44-.39-.32-.76-.67-1.17-.99-.01,0-.05,0-.06,0-.9-.71-1.83-1.45-2.8-2.16-.01,0-.05,0-.06,0-2.93-2.13-6.16-4.21-9.73-6.23-.02,0-.04,0-.06,0-2.38-1.35-4.89-2.72-7.57-4.02-.02,0-.04,0-.06,0-1.35-.65-2.7-1.28-4.14-1.92-1.65-.74-3.48-1.44-5.36-2.1-.02,0-.04-.05-.06-.06-1.91-.67-3.9-1.27-6-1.86-6.3-1.77-13.35-3.2-20.56-4.37-4.81-.78-9.69-1.43-14.45-1.98-7.11-.83-14-1.43-19.98-1.86-.02,0-.04,0-.06,0-11.98-.86-20.39-1.05-20.39-1.05h0Zm-593.24,83.07c46.69,60.03,107.13,106.56,174.87,137.3,1.13-2.26,2.23-4.51,3.32-6.76s2.17-4.52,3.2-6.76c.63-1.36,1.25-2.67,1.86-4.02.4-.89.77-1.74,1.17-2.62.98-2.22,1.93-4.44,2.85-6.64.57-2.01,1.08-4,1.57-5.94.1-.38.2-.73.29-1.11.39-1.57.77-3.08,1.11-4.6.06-.28.12-.54.17-.82.25-1.14.42-2.26.64-3.38.08-.43.21-.85.29-1.28.19-1.03.36-2.03.52-3.03.33-1.98.58-3.87.82-5.77.01-.1.05-.19.06-.29,0-.02,0-.04,0-.06.17-1.43.29-2.81.41-4.19.05-.53.14-1.05.17-1.57,0-.1,0-.19,0-.29.04-.54.03-1.04.06-1.57.06-1.04.15-2.08.17-3.09,0-.2,0-.39,0-.58.03-1.33.03-2.63,0-3.9-.02-1.1-.05-2.19-.12-3.26-.02-.35-.03-.7-.06-1.05-.05-.7-.11-1.36-.17-2.04-.07-.69-.15-1.36-.23-2.04-.02-.2-.03-.39-.06-.58-.14-1.07-.34-2.11-.52-3.15,0-.06,0-.12,0-.17-.2-1.12-.45-2.25-.7-3.32-.04-.16-.08-.31-.12-.47-.02-.08-.04-.15-.06-.23-.47-1.91-1.01-3.71-1.63-5.48-.24-.69-.49-1.37-.76-2.04-.46-1.16-.93-2.28-1.46-3.38-.06-.14-.11-.27-.17-.41-.28-.57-.58-1.13-.87-1.69-.34-.63-.69-1.25-1.05-1.86-.21-.36-.42-.7-.64-1.05-.48-.77-1-1.54-1.51-2.27-.12-.17-.23-.35-.35-.52-.28-.39-.59-.73-.87-1.11-.77-1.01-1.61-1.97-2.45-2.91-.3-.34-.56-.72-.87-1.05-.13-.14-.28-.27-.41-.41-.62-.65-1.26-1.3-1.92-1.92-.29-.28-.58-.55-.87-.82-.51-.46-1.05-.9-1.57-1.34-.47-.39-.97-.79-1.46-1.17-.85-.67-1.73-1.35-2.62-1.98-.19-.14-.39-.27-.58-.41-.23-.16-.47-.31-.7-.47-.88-.58-1.76-1.14-2.68-1.69-.06-.04-.11-.08-.17-.12-1.09-.65-2.24-1.27-3.38-1.86-.9-.47-1.86-.95-2.8-1.4-.33-.16-.66-.31-.99-.47-.73-.33-1.47-.67-2.21-.99-.55-.24-1.13-.47-1.69-.7-.56-.23-1.12-.42-1.69-.64-.76-.29-1.55-.6-2.33-.87-.38-.13-.78-.28-1.17-.41-1.02-.35-2.04-.67-3.09-.99-.15-.05-.31-.07-.47-.12-.21-.06-.43-.11-.64-.17-2.22-.66-4.49-1.3-6.82-1.86-.31-.08-.62-.16-.93-.23-.96-.23-1.93-.43-2.91-.64-.55-.12-1.13-.24-1.69-.35-2.07-.42-4.16-.8-6.29-1.17-1.09-.18-2.22-.36-3.32-.52-.23-.04-.47-.08-.7-.12-2.4-.36-4.82-.7-7.28-.99-1.83-.22-3.67-.4-5.53-.58-1.99-.2-4.03-.36-6.06-.52-.91-.07-1.82-.17-2.74-.23-.42-.03-.86-.03-1.28-.06-2.03-.14-4.06-.24-6.12-.35-.53-.03-1.05-.09-1.57-.12-1.67-.09-3.38-.16-5.07-.23-.19,0-.39,0-.58,0-7.05-.29-14.22-.47-21.44-.58-3.34-.05-6.67-.14-10.02-.17-.37,0-.74,0-1.11,0-12.15-.12-24.31-.19-36.12-.52-2.65-.07-5.26-.13-7.86-.23-.39-.02-.77-.04-1.17-.06-2.99-.13-5.93-.29-8.85-.47h0Z"/>
  <path id="path4425" class="cls-9" d="m628.51,443.45s133.07,178.87,15.28,312.53c-84.38,95.76-191.5,203.35-192.52,330.98-.35,43.75,22.54,101.06,64.18,114.5,86,27.76,278.08-34.87,234.59,118.06-41.39,98.52-142.6,218.17-142.6,218.17l13.22,11.3s266.1-193.3,313.55-339.99c11.91-36.81,12.03-86.45-13.81-115.25-77.52-75.39-185.89-4.26-258.01-18.66-52.97.24-40.14-35.33-24.35-68.52,37.22-79.94,109.95-112.44,146.43-220.34,22.09-65.34,25.51-125.97-30.41-204.67-36.04-50.72-125.56-138.12-125.56-138.12h0Z"/>
  <path id="path7137" class="cls-4" d="m779.27,485.73s170.55,234.6,211.71,503.64c48.56,317.33-141.98,482.24-141.98,482.24l12,16.52s122.76-81.45,192.85-170.69c50.25-63.98,98.1-195.03,98.1-195.03,0,0,60.12,1.32,86.85,13.28,45.81,20.51,49.69,47.3,49.47,78.13-.73,98.77-162.2,247.99-162.2,247.99l13.71,10.67s186.1-128.66,254.91-216.32c38.23-48.7,93.95-105.56,83.11-166.1-22.86-184.54-254.17-45.5-296.48-103.7-14.23-18.1,2.53-45.14,14.92-67.46,24.47-44.07,136.45-142.08,160.75-233.35,13.87-52.11,5.39-110.67-13.39-161.21-24.17-65.04-122.43-168.34-122.43-168.34,0,0,50.65,94.26,47.88,169.09-1.6,43.23-11.88,89.01-38.69,123.88-41.57,54.05-138.92,150.14-138.92,150.14,0,0-77.15-113.09-136.69-169.21-71.59-67.49-175.47-144.17-175.47-144.17h0Z"/>
  <path id="path4403" class="cls-11" d="m1028.82,654.22c-18.91-39.6-2.14-87.03,37.45-105.94,39.6-18.91,87.03-2.14,105.94,37.45,18.91,39.6,2.14,87.03-37.45,105.94-39.58,18.9-86.99,2.16-105.92-37.41"/>
  <circle class="cls-7" cx="1670.5" cy="1151.5" r="33.5"/>
  <circle class="cls-3" cx="1809.5" cy="1226.5" r="26.5"/>
  <circle class="cls-8" cx="1568.5" cy="1256.5" r="25.5"/>
  <path class="cls-7" d="m1789,1096s-32,20-55,54-44,63-95,46c0,0-51-19-67-33,0,0,28,36,65,57s25,61,4,110c0,0-5-2,31,12s63,22,81,20c0,0-43-180,36-266Z"/>
  <path class="cls-3" d="m1766,1182s-5,73,23,82,61.97-14.7,98.99-34.85c0,0-7.99,18.85-54.99,60.85,0,0-27,20-24,68,0,0-24,10-49,6,0,0-30-112,6-182Z"/>
  <path class="cls-8" d="m1591,1205s35,58,18,84-105-10-121-40c0,0,28,47,46,63,0,0,50-4,101,15,0,0,16-83-44-122Z"/>
  <path class="cls-5" d="m1853,1306c-20.18,98.25-145,54.91-175.35,42.78-2.05-.82-21.39-8.23-27.17-10.2-185.29-63.27-196.48,37.42-196.48,37.42,0,0,22.81-87.27,208.67-7.01.77.33,3.18,1.37,4.77,1.99,21.25,8.29,174.39,63.42,185.56-64.98Z"/>
  <path class="cls-7" d="m1798,1393s-48,12-114-8-119-45-168-37-76,50-67,77c0,0,4-47,54-55s75,5,110,16,119,42,185,7Z"/>
  <circle class="cls-7" cx="297.5" cy="1151.5" r="33.5"/>
  <circle class="cls-3" cx="158.5" cy="1226.5" r="26.5"/>
  <circle class="cls-8" cx="399.5" cy="1256.5" r="25.5"/>
  <path class="cls-7" d="m179,1096s32,20,55,54c23,34,44,63,95,46,0,0,51-19,67-33,0,0-28,36-65,57-37,21-25,61-4,110,0,0,5-2-31,12s-63,22-81,20c0,0,43-180-36-266Z"/>
  <path class="cls-3" d="m202,1182s5,73-23,82-61.97-14.7-98.99-34.85c0,0,7.99,18.85,54.99,60.85,0,0,27,20,24,68,0,0,24,10,49,6,0,0,30-112-6-182Z"/>
  <path class="cls-8" d="m377,1205s-35,58-18,84c17,26,105-10,121-40,0,0-28,47-46,63,0,0-50-4-101,15,0,0-16-83,44-122Z"/>
  <path class="cls-5" d="m115,1306c20.18,98.25,145,54.91,175.35,42.78,2.05-.82,21.39-8.23,27.17-10.2,185.29-63.27,196.48,37.42,196.48,37.42,0,0-22.81-87.27-208.67-7.01-.77.33-3.18,1.37-4.77,1.99-21.25,8.29-174.39,63.42-185.56-64.98Z"/>
  <path class="cls-7" d="m170,1393s48,12,114-8,119-45,168-37c49,8,76,50,67,77,0,0-4-47-54-55s-75,5-110,16-119,42-185,7Z"/>
  <text class="cls-1" transform="translate(213.26 989.04) rotate(-86.51)"><tspan x="0" y="0">S</tspan></text>
  <text class="cls-1" transform="translate(219 884.46) rotate(-78.03)"><tspan x="0" y="0">A</tspan></text>
  <text class="cls-1" transform="translate(244.14 764.13) rotate(-68.28)"><tspan x="0" y="0">N</tspan></text>
  <text class="cls-1" transform="translate(294.72 639.06) rotate(-58.63)"><tspan x="0" y="0">G</tspan></text>
  <text class="cls-1" transform="translate(359.14 533.94) rotate(-49.41)"><tspan x="0" y="0">G</tspan></text>
  <text class="cls-1" transform="translate(439.29 440.37) rotate(-39.94)"><tspan x="0" y="0">U</tspan></text>
  <text class="cls-1" transform="translate(539.3 356.62) rotate(-29.96)"><tspan x="0" y="0">N</tspan></text>
  <text class="cls-1" transform="translate(664.94 287.97) rotate(-21.9)"><tspan x="0" y="0">I</tspan></text>
  <text class="cls-1" transform="translate(729.93 260.38) rotate(-14.26)"><tspan x="0" y="0">A</tspan></text>
  <text class="cls-1" transform="translate(852.28 229.22) rotate(-4.32)"><tspan x="0" y="0">N</tspan></text>
  <text class="cls-1" transform="translate(990.26 219.78) rotate(5.42)"><tspan x="0" y="0">G</tspan></text>
  <text class="cls-1" transform="translate(1104.53 232.19) rotate(11.48)"><tspan x="0" y="0"> </tspan></text>
  <text class="cls-1" transform="translate(1150.29 239.43) rotate(17.51)"><tspan x="0" y="0">K</tspan></text>
  <text class="cls-1" transform="translate(1268.99 277.33) rotate(27.05)"><tspan x="0" y="0">A</tspan></text>
  <text class="cls-1" transform="translate(1382.55 336.13) rotate(36.48)"><tspan x="0" y="0">B</tspan></text>
  <text class="cls-1" transform="translate(1479.06 407.59) rotate(45.6)"><tspan x="0" y="0">A</tspan></text>
  <text class="cls-1" transform="translate(1569.76 502.92) rotate(54.36)"><tspan x="0" y="0">T</tspan></text>
  <text class="cls-1" transform="translate(1629.92 586.26) rotate(63.16)"><tspan x="0" y="0">A</tspan></text>
  <text class="cls-1" transform="translate(1687.28 700.86) rotate(72.83)"><tspan x="0" y="0">A</tspan></text>
  <text class="cls-1" transform="translate(1724.98 823.18) rotate(82.94)"><tspan x="0" y="0">N</tspan></text>
  <path class="cls-2" d="m501,1560l-27,30s-5-2-7-19-30-42-60-27-39,52-26,64,19,20,36,22c0,0,4,1-1,5s-22,22-22,22c0,0-6,2-11-1s-67-32-52-94c14.2-58.69,84.84-85.12,128.82-57.25,2.48,1.57,10.09,7.22,14.21,10.78,9.33,8.08,24.89,24.35,26.97,44.46Z"/>
  <path class="cls-2" d="m923.78,1723.8l-3.85,40.18s-5.21,1.37-16.93-11.1-49.1-15.9-64.29,14c-15.19,29.91-.4,65,17.19,66.91s27.17,4.77,42.02-3.74c0,0,3.81-1.58,2.17,4.61s-4.59,30.77-4.59,30.77c0,0-3.63,5.18-9.44,5.74-5.8.56-72.89,14.15-97.73-44.61-23.51-55.61,17.54-118.89,69.47-122.66,2.93-.21,12.4-.2,17.83.21,12.31.94,34.49,4.76,48.13,19.69Z"/>
  <path class="cls-2" d="m595,1604c-24-15-38-11-38-11l-82,59-21-13c-6,10-5,32-5,32l-19,12c7,18,20,32,20,32,3,0,28-19,28-19l39,25s0,10-4,20-2,14-2,14l15,4c34,10,32,7,32,7-4-9,14-64,21-90s16-72,16-72Zm-67,85l-21-15,40-33-19,48Z"/>
  <path class="cls-2" d="m1028.2,1707.42c-28.27,1.37-37.49,12.64-37.49,12.64l-33.69,95.24-24.66,1.3c.78,11.64,14.15,29.13,14.15,29.13l-8.76,20.69c16.02,10.79,34.68,14.87,34.68,14.87,2.46-1.71,12.16-31.58,12.16-31.58l46.29-1.72s5.7,8.21,8.12,18.71c2.42,10.5,6.34,12.64,6.34,12.64l14.6-5.27c33.63-11.18,30.28-12.51,30.28-12.51-8.42-5.11-25.01-60.55-34.1-85.9s-27.93-68.26-27.93-68.26Zm-6.54,108.03l-25.8-.34,14.03-49.92,11.78,50.26Z"/>
  <path class="cls-2" d="m766,1695c-25-44-112-36-112-36l-24,27s-2,6,10,6h9l-47,95s-1,5,4,8,44,35,87,29,66-39,53-64l-8-12s53-9,28-53Zm-43,28c-6,13-25,10-25,10,0,0-14,10-17,13s1,6,1,6c28,14,23,25,23,25-10,25-52,8-52,8l43-87c26,1,33,12,27,25Z"/>
  <path class="cls-2" d="m1220.5,1683.7c-45.9-22.19-112.7,34.13-112.7,34.13l-4.13,36.09s1.82,6.12,11.67-.74l7.39-5.14,16.21,105.59s2.06,4.72,7.9,4.35c5.83-.37,56.3,3.88,88.14-25.65,31.84-29.53,31.68-70.02,6.59-83.32l-13.49-5.38s38.31-37.73-7.58-59.92Zm-19.15,47.77c2.57,14.2-14.75,22.57-14.75,22.57,0,0-5.72,16.28-6.46,20.49s4.28,4.4,4.28,4.4c31.06-4.39,33.3,7.58,33.3,7.58,6.21,26.43-38.07,36.33-38.07,36.33l-14.88-96.67c21.92-14.02,34.01-8.9,36.58,5.3Z"/>
  <path class="cls-2" d="m1412,1635c-27-37-81-24-91-20s-17,5-17,5c-4,3,0,15,0,15-52,46-33,114,8,145s93-2,112-34,15-74-12-111Zm-38,111c-11,5-42,1-51-34s3-52,21-57c0,0,28-6,43,33s-2,53-13,58Z"/>
  <path class="cls-2" d="m1432,1553s-5-2-10,13l-9,27,18,7,77,110s2,4,5-1,18-28,18-28c0,0,2-2-2-7s-36-50-36-50l90,28,13-39s-84-105-90-116c0,0-3-4-8,2l-19,24s-1,4,7,13l48,59s-100-39-102-42Z"/>
</svg>