<svg xmlns="http://www.w3.org/2000/svg" width="640" height="640" viewBox="0 0 639.84 640.13">
  <path fill="#FFFFFF" d="M-47.156 733.839c-90.123-164.377-10.217-361.275 178.476-439.784 188.693-78.509 414.718-8.9 504.841 155.477 90.123 164.376 10.217 361.274-178.476 439.784-188.612 78.48-414.542 8.893-504.745-155.363"/>
  <path fill="#FCD116" d="M254.246 356.027c-20.733-.069-41.686 2.812-62.22 8.855 1.856 1.41 3.988 3.05 6.344 4.864.798.613 1.372 1.062 2.22 1.718 3.103 2.399 6.515 5.066 10.176 7.956.291.23.525.402.819.634 1.084.857 2.078 1.646 3.198 2.537 2.124 1.691 4.301 3.435 6.529 5.234.939.758 1.849 1.498 2.802 2.273 2.044 1.662 4.147 3.401 6.238 5.128.122.101.248.19.37.29.044.037.088.07.132.106 2.196 1.816 4.365 3.631 6.582 5.498.59.497 1.18.98 1.771 1.48 1.66 1.406 3.316 2.806 4.969 4.229 1.7 1.463 3.369 2.94 5.048 4.414.534.468 1.081.932 1.612 1.401 1.107.978 2.212 1.956 3.304 2.934.409.366.809.744 1.216 1.11 1.205 1.086 2.389 2.169 3.568 3.251 1.57 1.44 3.139 2.883 4.652 4.308 2.533 2.388 5.133 4.993 7.771 7.771 1.758 1.852 3.534 3.783 5.313 5.762 9.784 10.883 19.732 23.406 28.07 34.414 3.033 4.003 5.852 7.805 8.379 11.26 2.526 3.454 4.756 6.541 6.608 9.145.003.005-.003.022 0 .026 3.694 5.195 5.894 8.405 5.894 8.405 0 0 11.048-10.906 24.449-24.872 2.539-2.646 5.174-5.407 7.824-8.22.846-.899 1.688-1.788 2.537-2.696.004-.005-.004-.022 0-.026.841-.9 1.67-1.816 2.511-2.722 1.828-1.969 3.648-3.921 5.445-5.895.82-.9 1.65-1.8 2.458-2.696.004-.005-.004-.022 0-.026 1.694-1.88 3.38-3.739 4.996-5.577.004-.005-.004-.021 0-.026 1.4-1.592 2.754-3.139 4.071-4.678.208-.243.429-.499.634-.74 2.25-2.644 4.361-5.216 6.264-7.612.637-.802 1.261-1.586 1.85-2.352.6-.781 1.181-1.575 1.745-2.379.149-.213.302-.42.449-.634.406-.593.802-1.193 1.189-1.798.279-.436.55-.879.819-1.321.24-.393.482-.792.714-1.189.082-.14.157-.282.238-.423.405-.704.807-1.424 1.189-2.141.199-.374.389-.76.582-1.137.699-1.368 1.362-2.767 1.982-4.176.369-.837.715-1.687 1.057-2.537.025-.062.054-.123.079-.185.015-.037.038-.069.053-.106.332-.833.644-1.666.952-2.511.016-.045.037-.087.053-.132-39.385-35.983-91.683-56.015-145.507-56.194z"/>
  <path fill="#0038A8" d="M100.043 338.721s60.38 81.16 6.933 141.812c-38.29 43.45-86.893 92.271-87.354 150.182-.158 19.852 10.229 45.855 29.122 51.954 39.024 12.597 126.177-15.823 106.444 53.572-18.779 44.705-64.704 98.994-64.704 98.994l5.997 5.129s120.745-87.712 142.275-154.27c5.403-16.703 5.46-39.227-6.266-52.293-35.173-34.206-84.346-1.935-117.071-8.468-24.035.11-18.214-16.029-11.047-31.091 16.89-36.275 49.888-51.02 66.442-99.979 10.025-29.647 11.574-57.161-13.8-92.869-16.353-23.014-56.971-62.674-56.971-62.674z"/>
  <path fill="#CE1126" d="M168.446 357.907s77.386 106.45 96.066 228.524c22.033 143.988-64.423 218.818-64.423 218.818l5.445 7.496s55.702-36.96 87.504-77.452c22.801-29.032 44.513-88.496 44.513-88.496 0 0 27.28.597 39.409 6.026 20.785 9.304 22.549 21.464 22.446 35.45-.331 44.818-73.599 112.527-73.599 112.527l6.221 4.843s84.441-58.379 115.664-98.154c17.347-22.097 42.632-47.896 37.713-75.37-10.372-83.735-115.329-20.646-134.528-47.055-6.459-8.214 1.148-20.484 6.771-30.608 11.105-19.995 61.915-64.467 72.94-105.883 6.294-23.644 2.448-50.215-6.076-73.15-10.968-29.51-55.553-76.385-55.553-76.385 0 0 22.982 42.769 21.726 76.727-.726 19.615-5.388 40.388-17.556 56.209-18.861 24.525-63.037 68.127-63.037 68.127 0 0-35.008-51.313-62.023-76.78-32.484-30.622-79.62-65.416-79.62-65.416z"/>
  <path fill="#CE1126" d="M372.023 466.8c-9.567-20.891-1.084-45.915 18.947-55.893 20.031-9.977 44.025-1.13 53.592 19.76 9.567 20.89 1.085 45.915-18.946 55.892-20.022 9.974-44.006 1.14-53.581-19.737"/>
</svg>